<?xml version="1.0" encoding="UTF-8"?>
<svg xmlns="http://www.w3.org/2000/svg" xmlns:xlink="http://www.w3.org/1999/xlink" width="20px" height="20px" viewBox="0 0 20 20" version="1.1">
<g id="surface1">
<path style=" stroke:none;fill-rule:nonzero;fill:rgb(0%,0%,0%);fill-opacity:1;" d="M 13.679688 3.195312 C 15.878906 3.195312 17.664062 4.980469 17.664062 7.183594 C 17.664062 8.3125 17.191406 9.332031 16.4375 10.058594 L 10 16.523438 L 3.449219 9.941406 C 2.761719 9.222656 2.335938 8.253906 2.335938 7.183594 C 2.335938 4.980469 4.121094 3.195312 6.320312 3.195312 C 7.980469 3.195312 9.398438 4.210938 10 5.648438 C 10.601562 4.210938 12.023438 3.195312 13.679688 3.195312 Z M 13.679688 2.53125 C 12.214844 2.53125 10.867188 3.210938 10 4.332031 C 9.132812 3.210938 7.789062 2.53125 6.320312 2.53125 C 3.757812 2.53125 1.671875 4.617188 1.671875 7.183594 C 1.671875 8.386719 2.128906 9.53125 2.96875 10.402344 L 10 17.46875 L 16.90625 10.527344 C 17.820312 9.652344 18.328125 8.460938 18.328125 7.183594 C 18.328125 4.617188 16.242188 2.53125 13.679688 2.53125 Z M 13.679688 2.53125 "/>
</g>
</svg>
